ply
format ascii 1.0
element vertex 25
comment vertices
property float x
property float y
property float z
end_header
0.0675887167453765869 1.4593733549118042 0.581965804100036621
-0.485421210527420044 1.79961729049682617 -0.169272184371948242
1.13880348205566406 2.70737147331237793 0.786111712455749512
-0.883442699909210205 1.19404077529907227 0.429687261581420898
1.3045649528503418 1.86567223072052002 1.28055405616760254
0.424178481101989746 1.66588723659515381 1.01010251045227051
0.00591665878891944885 1.86277163028717041 -1.2257387638092041
-0.297160893678665161 1.04832422733306885 0.358384162187576294
-0.47560042142868042 2.1478884220123291 -0.291055917739868164
-0.0183198899030685425 2.74107027053833008 -0.253287732601165771
1.49610483646392822 2.73600244522094727 0.541099131107330322
1.14966130256652832 3.14045453071594238 -0.413105279207229614
0.203146427869796753 1.60393369197845459 0.0760180354118347168
-0.576593995094299316 0.942838728427886963 -0.320648461580276489
0.941356539726257324 2.63106489181518555 0.587661504745483398
0.800817906856536865 2.88991641998291016 0.00852006673812866211
-0.26176723837852478 1.31347405910491943 0.508631348609924316
0.357491493225097656 1.23317492008209229 -0.613462448120117188
-1.12385678291320801 1.3287203311920166 -0.103106260299682617
0.30128854513168335 2.05807638168334961 -0.340213298797607422
-0.943156540393829346 1.27553451061248779 -0.661452174186706543
0.842157900333404541 1.94013583660125732 -0.146355360746383667
1.13178956508636475 2.11211323738098145 1.02730286121368408
-0.362372040748596191 1.42166829109191895 0.249134242534637451
0.210495606064796448 1.50907492637634277 0.575596034526824951
