ply
format ascii 1.0
element vertex 128
comment vertices
property float x
property float y
property float z
end_header
0.700301170349121094 1.72290277481079102 0.995191454887390137
1.10384976863861084 2.25908160209655762 -1.98247289657592773
-1.2895655632019043 1.14256906509399414 -0.312052607536315918
0.701200604438781738 0.919977903366088867 -0.693235397338867188
1.00117194652557373 3.10005712509155273 -0.23242563009262085
-0.640602290630340576 2.53142690658569336 -1.30882906913757324
1.73406100273132324 1.87359523773193359 -0.494308143854141235
-0.517065584659576416 0.810445904731750488 0.82563328742980957
0.0633959323167800903 1.99165606498718262 -0.119186356663703918
1.6126701831817627 2.52726984024047852 0.707148313522338867
-0.919501423835754395 1.76551628112792969 0.495358556509017944
-0.24907056987285614 1.47673821449279785 -0.919113457202911377
0.0380697846412658691 1.04076945781707764 -0.0157983899116516113
0.961431980133056641 1.88498842716217041 0.135066092014312744
1.64648282527923584 2.06765985488891602 -1.33357012271881104
0.497860819101333618 2.4637148380279541 -0.672836422920227051
0.953377366065979004 1.57036077976226807 -1.16884374618530273
0.00693868100643157959 1.52894699573516846 0.591446816921234131
0.913529753684997559 2.62442326545715332 0.36056828498840332
-0.574852883815765381 1.45545291900634766 -0.196806013584136963
0.965093672275543213 2.47004938125610352 1.10192561149597168
0.485048353672027588 1.59439373016357422 -0.581565260887145996
-0.658783972263336182 0.927220821380615234 -0.728985726833343506
1.08106398582458496 2.43776559829711914 -0.334119737148284912
0.591405630111694336 0.678347229957580566 -0.0821906328201293945
1.73972439765930176 2.14444828033447266 0.104259252548217773
-0.851089298725128174 0.935209035873413086 0.278219759464263916
1.36305952072143555 1.97725522518157959 0.956296682357788086
1.18581223487854004 1.58062887191772461 -0.391189485788345337
-0.42020609974861145 2.12323379516601562 -0.493776381015777588
0.404262185096740723 2.51135754585266113 -0.0486113652586936951
0.0767065063118934631 1.12131965160369873 -0.590281128883361816
1.29791820049285889 2.14869284629821777 -0.877562582492828369
0.466588079929351807 1.58812856674194336 0.262334138154983521
1.09916138648986816 2.07167649269104004 1.46704471111297607
-0.53691411018371582 1.40508997440338135 0.668692588806152344
-0.778748035430908203 1.45701658725738525 -0.784317135810852051
0.302354633808135986 1.44005632400512695 1.15260171890258789
1.30781924724578857 2.24741601943969727 0.360504478216171265
0.639062941074371338 1.97474050521850586 -0.274811863899230957
0.578767895698547363 2.93314909934997559 -0.504132628440856934
-0.0101723223924636841 1.83253180980682373 -0.65200352668762207
0.79589313268661499 2.0133664608001709 0.589098632335662842
0.760935127735137939 1.32332754135131836 -0.282509446144104004
-0.316298335790634155 1.11991226673126221 0.309924960136413574
1.32370662689208984 2.03538060188293457 -0.228428035974502563
0.501610040664672852 1.37689805030822754 -1.00289177894592285
-0.381940364837646484 1.04830098152160645 -0.364185035228729248
-0.637862086296081543 1.91604864597320557 -0.107353538274765015
-0.190973848104476929 1.52409422397613525 0.0599204748868942261
0.0162667334079742432 2.4021906852722168 -0.335999786853790283
0.364518821239471436 1.2306056022644043 0.604547679424285889
1.02670598030090332 1.22818708419799805 -0.795943677425384521
0.574066340923309326 2.88615870475769043 0.207516834139823914
1.406136155128479 2.3877105712890625 -1.67967057228088379
-0.622697234153747559 1.53207945823669434 0.251504123210906982
1.25233268737792969 2.82453632354736328 0.566710829734802246
-1.00297713279724121 1.67074131965637207 0.0701042711734771729
-0.98308253288269043 1.45319771766662598 -0.397874742746353149
1.28976845741271973 1.67699718475341797 -0.914976179599761963
0.0372262746095657349 1.46328866481781006 -0.32634088397026062
1.13896715641021729 2.73911809921264648 0.00987615436315536499
0.386312246322631836 0.866818368434906006 -0.407625317573547363
0.503905832767486572 2.009796142578125 0.119785785675048828
1.61931765079498291 1.54661440849304199 -0.260946512222290039
0.361407607793807983 1.25411248207092285 -0.165961802005767822
1.38083410263061523 2.41017341613769531 1.03065991401672363
0.0282611101865768433 2.23082089424133301 0.215797305107116699
1.21000981330871582 2.21473956108093262 -1.27336549758911133
1.11313736438751221 1.87773478031158447 -1.83272027969360352
0.246496722102165222 1.71503674983978271 0.859593033790588379
0.14013671875 1.31202816963195801 0.288157850503921509
-0.347094267606735229 1.74958586692810059 0.703882217407226562
-0.5547637939453125 0.944590508937835693 -0.0265576839447021484
0.00386606901884078979 0.817418336868286133 -0.34053078293800354
1.10982251167297363 2.48556900024414062 0.683675706386566162
-0.352930516004562378 1.57147622108459473 -0.559902727603912354
0.739947676658630371 2.83352327346801758 -0.13713499903678894
-0.175651520490646362 1.22466874122619629 0.737956523895263672
1.55708861351013184 2.00524425506591797 -1.69966316223144531
0.691452085971832275 2.35195565223693848 -0.240671515464782715
0.138550832867622375 1.77367162704467773 0.218812957406044006
1.6451716423034668 2.49436450004577637 0.210896804928779602
1.06063175201416016 2.59845685958862305 -1.83884072303771973
0.777574360370635986 2.08400750160217285 0.989715218544006348
1.52271318435668945 2.05924487113952637 0.586791276931762695
-0.200151115655899048 0.84985661506652832 -0.639593899250030518
0.97832953929901123 2.24747705459594727 0.134455516934394836
0.896271169185638428 2.03708696365356445 -0.520791053771972656
0.952219128608703613 2.4248347282409668 -0.666488528251647949
1.41074204444885254 1.88489854335784912 -0.643442273139953613
0.953951776027679443 1.82065701484680176 -0.23472103476524353
0.384760916233062744 1.09975016117095947 -0.760654091835021973
-1.0019688606262207 1.00746870040893555 -0.0300310961902141571
0.455666840076446533 2.10396218299865723 -0.544205665588378906
-0.866541385650634766 1.42069995403289795 0.508381843566894531
0.592953026294708252 3.14227533340454102 -0.207075268030166626
0.227183356881141663 1.85292708873748779 -0.392803847789764404
-0.901566684246063232 1.11690247058868408 -0.374778151512145996
0.619032740592956543 1.66006147861480713 0.664535403251647949
0.824332594871520996 2.26089239120483398 1.33880245685577393
-0.636008381843566895 1.24046504497528076 -0.554866135120391846
0.933908939361572266 1.5572810173034668 -0.766857385635375977
-0.935139834880828857 1.12891626358032227 -0.713890433311462402
0.757476091384887695 1.58991312980651855 -0.07395172119140625
0.375882536172866821 2.67075371742248535 -0.344820767641067505
1.8127293586730957 2.17634868621826172 -0.376587450504302979
1.09994149208068848 2.08921694755554199 0.70217132568359375
1.07144355773925781 2.03311753273010254 1.14269673824310303
0.0119588375091552734 1.06969249248504639 0.467860311269760132
0.292147576808929443 1.67912697792053223 -0.0548047274351119995
-0.329771935939788818 1.43469691276550293 0.397651255130767822
1.27890980243682861 1.85191667079925537 0.0668911933898925781
1.6210169792175293 2.11652374267578125 -0.734636902809143066
0.073647916316986084 1.37331533432006836 0.87690436840057373
0.760195136070251465 1.32634162902832031 -0.627220332622528076
-0.698385477066040039 1.2518925666809082 0.0173421204090118408
0.721926450729370117 2.61054253578186035 -0.425882160663604736
1.04888224601745605 2.89327454566955566 -0.468769431114196777
0.282690972089767456 2.21283125877380371 -0.11172090470790863
0.45822790265083313 1.18730556964874268 -0.471094995737075806
1.23537802696228027 2.58016324043273926 0.258473426103591919
0.642117500305175781 1.87247395515441895 0.359042346477508545
-0.219794660806655884 1.17480993270874023 -0.62096017599105835
1.85771656036376953 1.71313786506652832 -0.718745708465576172
-0.282092779874801636 1.29384922981262207 -0.112827114760875702
1.33548593521118164 2.24695086479187012 1.27978610992431641
-0.0835431814193725586 1.76933419704437256 0.436446875333786011
